<?xml version="1.0" encoding="UTF-8" standalone="no"?>
<!-- Created with Inkscape (http://www.inkscape.org/) -->

<svg
   width="64.955231mm"
   height="58.237831mm"
   viewBox="0 0 64.955231 58.237831"
   version="1.1"
   id="svg1"
   inkscape:version="1.4.2 (ebf0e940d0, 2025-05-08)"
   sodipodi:docname="diagram.svg"
   xmlns:inkscape="http://www.inkscape.org/namespaces/inkscape"
   xmlns:sodipodi="http://sodipodi.sourceforge.net/DTD/sodipodi-0.dtd"
   xmlns="http://www.w3.org/2000/svg"
   xmlns:svg="http://www.w3.org/2000/svg">
  <sodipodi:namedview
     id="namedview1"
     pagecolor="#ffffff"
     bordercolor="#000000"
     borderopacity="0.25"
     inkscape:showpageshadow="2"
     inkscape:pageopacity="0.0"
     inkscape:pagecheckerboard="false"
     inkscape:deskcolor="#d1d1d1"
     inkscape:document-units="mm"
     inkscape:zoom="2.114885"
     inkscape:cx="186.29855"
     inkscape:cy="175.65967"
     inkscape:window-width="2560"
     inkscape:window-height="1388"
     inkscape:window-x="0"
     inkscape:window-y="0"
     inkscape:window-maximized="1"
     inkscape:current-layer="layer1" />
  <defs
     id="defs1">
    <inkscape:path-effect
       effect="bspline"
       id="path-effect8"
       is_visible="true"
       lpeversion="1.3"
       weight="33.333333"
       steps="2"
       helper_size="0"
       apply_no_weight="true"
       apply_with_weight="true"
       only_selected="false"
       uniform="false" />
    <inkscape:path-effect
       effect="bspline"
       id="path-effect7"
       is_visible="true"
       lpeversion="1.3"
       weight="33.333333"
       steps="2"
       helper_size="0"
       apply_no_weight="true"
       apply_with_weight="true"
       only_selected="false"
       uniform="false" />
    <inkscape:path-effect
       effect="bspline"
       id="path-effect6"
       is_visible="true"
       lpeversion="1.3"
       weight="33.333333"
       steps="2"
       helper_size="0"
       apply_no_weight="true"
       apply_with_weight="true"
       only_selected="false"
       uniform="false" />
  </defs>
  <g
     inkscape:label="Layer 1"
     inkscape:groupmode="layer"
     id="layer1"
     transform="translate(-49.278702,-94.15323)">
    <path
       style="fill:#80ff80;fill-opacity:0;stroke:#000000;stroke-width:0.513749"
       d="m 73.8147,94.20461 -8.887614,43.53602"
       id="path1" />
    <path
       style="fill:#80ff80;fill-opacity:0;stroke:#000000;stroke-width:0.526"
       d="M 59.299916,94.704716 H 110.09267"
       id="path2" />
    <path
       style="fill:#80ff80;fill-opacity:0;stroke:#000000;stroke-width:0.526"
       d="M 96.581297,94.829822 96.205981,139.1171"
       id="path3" />
    <rect
       style="fill:#80ff80;fill-opacity:0;stroke:#000000;stroke-width:0.526"
       id="rect3"
       width="4.2535806"
       height="13.261163"
       x="94.079185"
       y="138.8669" />
    <rect
       style="fill:#80ff80;fill-opacity:0;stroke:#000000;stroke-width:0.526"
       id="rect4"
       width="4.7540002"
       height="13.010952"
       x="85.829247"
       y="123.97623"
       transform="rotate(10.16108)" />
    <rect
       style="fill:#80ff80;fill-opacity:0;stroke:#000000;stroke-width:0.526"
       id="rect5"
       width="7.2561078"
       height="2.1267903"
       x="49.541702"
       y="142.99538" />
    <rect
       style="fill:#80ff80;fill-opacity:0;stroke:#000000;stroke-width:0.554989"
       id="rect6"
       width="6.9769082"
       height="2.0978014"
       x="106.97953"
       y="142.13412" />
    <path
       style="fill:#80ff80;fill-opacity:0;stroke:#000000;stroke-width:0.526"
       d="m 69.433444,115.4722 c 1.668071,-1.16765 3.336142,-2.3353 4.71231,-2.16848 1.376169,0.16682 2.460396,1.66806 2.376979,2.87742 -0.08342,1.20936 -1.334445,2.12678 -2.397848,1.93911 -1.063403,-0.18767 -1.939122,-1.4804 -1.480386,-2.73147 0.458735,-1.25106 2.251877,-2.46039 3.732303,-2.29357 1.480426,0.16683 2.648051,1.70976 2.627188,2.96082 -0.02086,1.25106 -1.230193,2.21019 -2.272746,2.06422 -1.042553,-0.14597 -1.918273,-1.397 -1.501237,-2.66892 0.417035,-1.27191 2.126772,-2.56464 3.607198,-2.39782 1.480426,0.16682 2.731454,1.79316 2.752294,3.10678 0.02084,1.31361 -1.188485,2.31443 -2.168485,2.25187 -0.980001,-0.0626 -1.730619,-1.18849 -1.188478,-2.48126 0.542142,-1.29277 2.376982,-2.7523 3.961662,-2.64803 1.58468,0.10427 2.919111,1.77231 3.002503,3.06507 0.08339,1.29277 -1.084234,2.21019 -2.064233,2.10592 -0.979998,-0.10426 -1.772317,-1.23019 -1.230176,-2.4604 0.542141,-1.23022 2.418686,-2.56465 3.91996,-2.41867 1.501274,0.14597 2.627197,1.7723 2.627188,3.02336 -9e-6,1.25106 -1.12594,2.12679 -2.126789,1.95997 -1.000849,-0.16682 -1.87657,-1.37615 -1.355278,-2.66892 0.521293,-1.29277 2.439535,-2.6689 3.961661,-2.50208 1.522126,0.16683 2.648052,1.87657 2.585487,3.14848 -0.06257,1.27191 -1.313593,2.10593 -2.335297,1.93911 -1.021704,-0.16682 -1.814018,-1.33444 -1.271877,-2.56465 0.542142,-1.23022 2.418686,-2.52295 3.91996,-2.35612 1.501274,0.16682 2.627197,1.79315 2.606336,3.02336 -0.02086,1.23021 -1.188486,2.06423 -2.147637,1.89741 -0.959152,-0.16682 -1.709765,-1.33444 -1.27188,-2.48125 0.437884,-1.14681 2.06422,-2.27274 3.127622,-2.41869 1.063402,-0.14594 1.563814,0.68808 2.064233,1.52211"
       id="path7"
       inkscape:path-effect="#path-effect8"
       inkscape:original-d="m 69.433444,115.4722 c 1.668071,-1.16765 3.336142,-2.3353 5.004213,-3.50295 1.084268,1.50129 2.168493,3.00253 3.252737,4.50379 -1.251077,0.91746 -2.502106,1.83488 -3.753159,2.75232 -0.875753,-1.29278 -1.751473,-2.58551 -2.62721,-3.87827 1.793211,-1.20937 3.586351,-2.4187 5.379527,-3.62805 1.167673,1.543 2.3353,3.08593 3.502949,4.62889 -1.209376,0.95916 -2.418702,1.91829 -3.628054,2.87743 -0.875755,-1.25108 -1.751473,-2.50211 -2.627212,-3.75316 1.709809,-1.29278 3.419546,-2.58551 5.129318,-3.87827 1.25108,1.6264 2.502106,3.25274 3.75316,4.87911 -1.209376,1.00086 -2.418702,2.00168 -3.628054,3.00253 -0.750647,-1.12597 -1.501265,-2.2519 -2.251896,-3.37785 1.834915,-1.45959 3.669755,-2.91912 5.504633,-4.37868 1.334484,1.6681 2.668913,3.33614 4.00337,5.00421 -1.167672,0.91746 -2.335299,1.83488 -3.502948,2.75232 -0.79235,-1.12597 -1.584666,-2.2519 -2.377001,-3.37785 1.876616,-1.33448 3.75316,-2.66891 5.629738,-4.00336 1.125972,1.6264 2.251896,3.25273 3.377843,4.8791 -1.125969,0.87575 -2.251895,1.75148 -3.377843,2.62721 -0.875755,-1.20937 -1.751473,-2.4187 -2.627212,-3.62805 1.918322,-1.37619 3.836565,-2.75232 5.754847,-4.12848 1.125968,1.70981 2.251895,3.41955 3.377842,5.12932 -1.251079,0.83405 -2.502106,1.66807 -3.753159,2.50211 -0.792351,-1.16768 -1.584666,-2.3353 -2.377001,-3.50295 1.876616,-1.29278 3.75316,-2.58551 5.629738,-3.87826 1.125971,1.6264 2.251895,3.25273 3.377843,4.8791 -1.167673,0.83405 -2.335297,1.66807 -3.502949,2.50211 -0.750646,-1.16768 -1.501261,-2.3353 -2.251895,-3.50295 1.626402,-1.12597 3.252737,-2.2519 4.879107,-3.37785 0.500431,0.83406 1.000842,1.66808 1.501265,2.50211" />
    <text
       xml:space="preserve"
       style="font-size:4.616px;font-family:'Liberation Serif';-inkscape-font-specification:'Liberation Serif, Normal';text-align:start;writing-mode:lr-tb;direction:ltr;text-anchor:start;fill:#80ff80;fill-opacity:0;stroke:#000000;stroke-width:0.526"
       x="52.043804"
       y="149.12552"
       id="text8"><tspan
         sodipodi:role="line"
         id="tspan8"
         style="stroke-width:0.526"
         x="52.043804"
         y="149.12552">1</tspan><tspan
         sodipodi:role="line"
         style="stroke-width:0.526"
         x="52.043804"
         y="154.89552"
         id="tspan9" /></text>
    <text
       xml:space="preserve"
       style="font-size:4.616px;font-family:'Liberation Serif';-inkscape-font-specification:'Liberation Serif, Normal';text-align:start;writing-mode:lr-tb;direction:ltr;text-anchor:start;fill:#80ff80;fill-opacity:0;stroke:#000000;stroke-width:0.526"
       x="109.84247"
       y="148.37489"
       id="text10"><tspan
         sodipodi:role="line"
         id="tspan10"
         style="stroke-width:0.526"
         x="109.84247"
         y="148.37489">2</tspan><tspan
         sodipodi:role="line"
         style="stroke-width:0.526"
         x="109.84247"
         y="154.1449"
         id="tspan11" /></text>
  </g>
</svg>
